<svg id="Group_52340" data-name="Group 52340" xmlns="http://www.w3.org/2000/svg" width="16" height="16" viewBox="0 0 16 16">
  <path id="Path_97582" data-name="Path 97582" d="M11.766,0H4.234A4.239,4.239,0,0,0,0,4.234v7.531A4.239,4.239,0,0,0,4.234,16h7.531A4.239,4.239,0,0,0,16,11.766V4.234A4.239,4.239,0,0,0,11.766,0Zm3.3,11.766a3.3,3.3,0,0,1-3.3,3.3H4.234a3.3,3.3,0,0,1-3.3-3.3V4.234a3.3,3.3,0,0,1,3.3-3.3h7.531a3.3,3.3,0,0,1,3.3,3.3Z" fill="#4e5b6a"/>
  <path id="Path_97583" data-name="Path 97583" d="M249.943,232.967a3.049,3.049,0,0,0-2.192,1.021,2.042,2.042,0,0,0-1.824-1.021h0a.469.469,0,0,0,0,.938,1.1,1.1,0,0,1,1.106,1.429l0,.009h0a2.193,2.193,0,0,1-2,1.641.469.469,0,0,0,0,.938,3.05,3.05,0,0,0,2.192-1.021,2.043,2.043,0,0,0,1.824,1.021.469.469,0,0,0,0-.937,1.1,1.1,0,0,1-1.107-1.428l0-.01a2.192,2.192,0,0,1,2-1.641h0A.469.469,0,0,0,249.943,232.967Z" transform="translate(-236.922 -225.687)" fill="#4e5b6a"/>
  <path id="Path_97584" data-name="Path 97584" d="M85.788,93.465A.469.469,0,0,0,85.32,93H84.4l.054-.241.489-2.2c.256-1.33,2.344-1.626,2.1-.2a.469.469,0,1,0,.915.2c.423-2.789-3.407-2.671-3.928-.2l-.489,2.2-.1.444h-1.13a.469.469,0,0,0,0,.938h.922l-.431,1.94a2.185,2.185,0,0,1-2,1.641.469.469,0,0,0,0,.938,3.117,3.117,0,0,0,2.912-2.375l.476-2.143h1.13A.469.469,0,0,0,85.788,93.465Z" transform="translate(-77.822 -85.716)" fill="#4e5b6a"/>
</svg>
