<svg xmlns="http://www.w3.org/2000/svg" width="14" height="16" viewBox="0 0 14 16">
  <g id="function-mathematical-symbol" transform="translate(-11.224)">
    <g id="Group_48731" data-name="Group 48731" transform="translate(11.224)">
      <path id="Path_97030" data-name="Path 97030" d="M13.923,16a2.516,2.516,0,0,0,2.291-1.857q.005-.016.009-.033c.494-1.97,1.281-5.092,1.864-7.363h2.086a.684.684,0,1,0,0-1.367H18.439c.187-.715.323-1.225.377-1.4l.06-.195c.22-.723.736-2.418,1.533-2.418.739,0,.849,1.1.854,1.149a.71.71,0,0,0,1.416-.108A2.429,2.429,0,0,0,20.408,0c-1.861,0-2.56,2.3-2.9,3.4l-.057.186c-.068.218-.247.892-.481,1.792H14.491a.684.684,0,1,0,0,1.367h2.133c-.729,2.847-1.671,6.6-1.775,7.017-.039.108-.33.869-.925.869-.909,0-1.3-1.229-1.306-1.238a.714.714,0,0,0-.88-.467.681.681,0,0,0-.485.847A2.962,2.962,0,0,0,13.923,16Z" transform="translate(-11.224)" fill="#62768f"/>
      <path id="Path_97031" data-name="Path 97031" d="M89.333,80.558a.732.732,0,0,0,.77-.742.911.911,0,0,0-.275-.615L88.354,77.57l1.431-1.611a.841.841,0,0,0,.231-.551.728.728,0,0,0-.782-.7.972.972,0,0,0-.726.414l-1.111,1.4-1.089-1.4a.966.966,0,0,0-.781-.413.732.732,0,0,0-.77.742.912.912,0,0,0,.275.614l1.376,1.526L84.9,79.308a.789.789,0,0,0-.231.551.728.728,0,0,0,.781.7.971.971,0,0,0,.726-.413l1.188-1.5,1.189,1.5A.967.967,0,0,0,89.333,80.558Z" transform="translate(-76.103 -66.321)" fill="#62768f"/>
    </g>
  </g>
</svg>
